<?xml version="1.0" encoding="UTF-8" standalone="no"?>
<!DOCTYPE svg PUBLIC "-//W3C//DTD SVG 1.1//EN"
 "http://www.w3.org/Graphics/SVG/1.1/DTD/svg11.dtd">
<!-- Generated by graphviz version 2.38.0 (20140413.2041)
 -->
<!-- Title: Neo Pages: 1 -->
<svg width="872pt" height="1304pt"
 viewBox="0.00 0.00 872.00 1304.00" xmlns="http://www.w3.org/2000/svg" xmlns:xlink="http://www.w3.org/1999/xlink">
<g id="graph0" class="graph" transform="scale(1 1) rotate(0) translate(4 1300)">
<title>Neo</title>
<polygon fill="white" stroke="none" points="-4,4 -4,-1300 868,-1300 868,4 -4,4"/>
<!-- N1 -->
<g id="node1" class="node"><title>N1</title>
<path fill="none" stroke="#00868b" d="M299.5,-1199.5C299.5,-1199.5 507.5,-1199.5 507.5,-1199.5 513.5,-1199.5 519.5,-1205.5 519.5,-1211.5 519.5,-1211.5 519.5,-1283.5 519.5,-1283.5 519.5,-1289.5 513.5,-1295.5 507.5,-1295.5 507.5,-1295.5 299.5,-1295.5 299.5,-1295.5 293.5,-1295.5 287.5,-1289.5 287.5,-1283.5 287.5,-1283.5 287.5,-1211.5 287.5,-1211.5 287.5,-1205.5 293.5,-1199.5 299.5,-1199.5"/>
<text text-anchor="middle" x="403.5" y="-1277.1" font-family="Clear Sans Thin" font-size="18.00" fill="#00868b">GlobalScope</text>
<text text-anchor="middle" x="403.5" y="-1257.1" font-family="Clear Sans Thin" font-size="18.00" fill="#00868b"> Scope</text>
<polyline fill="none" stroke="#00868b" points="287.5,-1247.5 519.5,-1247.5 "/>
<text text-anchor="start" x="295.5" y="-1229.1" font-family="Clear Sans Thin" font-size="18.00" fill="#00868b">&#39;type&#39; = &#39;Global&#39; : String</text>
<text text-anchor="start" x="295.5" y="-1209.1" font-family="Clear Sans Thin" font-size="18.00" fill="#00868b">&#39;dynamic&#39; = true : boolean</text>
</g>
<!-- N6 -->
<g id="node2" class="node"><title>N6</title>
<path fill="none" stroke="#00868b" d="M240.5,-973.5C240.5,-973.5 452.5,-973.5 452.5,-973.5 458.5,-973.5 464.5,-979.5 464.5,-985.5 464.5,-985.5 464.5,-1037.5 464.5,-1037.5 464.5,-1043.5 458.5,-1049.5 452.5,-1049.5 452.5,-1049.5 240.5,-1049.5 240.5,-1049.5 234.5,-1049.5 228.5,-1043.5 228.5,-1037.5 228.5,-1037.5 228.5,-985.5 228.5,-985.5 228.5,-979.5 234.5,-973.5 240.5,-973.5"/>
<text text-anchor="middle" x="346.5" y="-1031.1" font-family="Clear Sans Thin" font-size="18.00" fill="#00868b">Scope</text>
<polyline fill="none" stroke="#00868b" points="228.5,-1021.5 464.5,-1021.5 "/>
<text text-anchor="start" x="236.5" y="-1003.1" font-family="Clear Sans Thin" font-size="18.00" fill="#00868b">&#39;type&#39; = &#39;Module&#39; : String</text>
<text text-anchor="start" x="236.5" y="-983.1" font-family="Clear Sans Thin" font-size="18.00" fill="#00868b">&#39;dynamic&#39; = false : boolean</text>
</g>
<!-- N1&#45;&gt;N6 -->
<g id="edge1" class="edge"><title>N1&#45;&gt;N6</title>
<path fill="none" stroke="#999999" d="M396.802,-1199.27C394.747,-1186.77 392.283,-1173.32 389.5,-1161 381.753,-1126.69 370.669,-1088.59 361.695,-1059.58"/>
<polygon fill="#999999" stroke="#999999" points="364.937,-1058.22 358.618,-1049.71 358.255,-1060.3 364.937,-1058.22"/>
<text text-anchor="middle" x="419" y="-1120.1" font-family="Clear Sans Thin" font-size="18.00" fill="#999999">children</text>
</g>
<!-- N3 -->
<g id="node3" class="node"><title>N3</title>
<path fill="none" stroke="#00868b" d="M316.5,-1106.5C316.5,-1106.5 346.5,-1106.5 346.5,-1106.5 352.5,-1106.5 358.5,-1112.5 358.5,-1118.5 358.5,-1118.5 358.5,-1130.5 358.5,-1130.5 358.5,-1136.5 352.5,-1142.5 346.5,-1142.5 346.5,-1142.5 316.5,-1142.5 316.5,-1142.5 310.5,-1142.5 304.5,-1136.5 304.5,-1130.5 304.5,-1130.5 304.5,-1118.5 304.5,-1118.5 304.5,-1112.5 310.5,-1106.5 316.5,-1106.5"/>
<text text-anchor="middle" x="331.5" y="-1120.1" font-family="Clear Sans Thin" font-size="18.00" fill="#00868b">List</text>
</g>
<!-- N1&#45;&gt;N3 -->
<g id="edge2" class="edge"><title>N1&#45;&gt;N3</title>
<path fill="none" stroke="#00868b" d="M334.471,-1199.24C329.737,-1193.62 325.617,-1187.53 322.5,-1181 318.3,-1172.2 318.747,-1161.82 320.854,-1152.43"/>
<polygon fill="#00868b" stroke="#00868b" points="324.237,-1153.33 323.651,-1142.75 317.512,-1151.39 324.237,-1153.33"/>
<text text-anchor="middle" x="356" y="-1166.6" font-family="Clear Sans Thin" font-size="18.00" fill="#00868b">children</text>
</g>
<!-- N2 -->
<g id="node4" class="node"><title>N2</title>
<path fill="none" stroke="black" d="M472,-880.5C472,-880.5 525,-880.5 525,-880.5 531,-880.5 537,-886.5 537,-892.5 537,-892.5 537,-904.5 537,-904.5 537,-910.5 531,-916.5 525,-916.5 525,-916.5 472,-916.5 472,-916.5 466,-916.5 460,-910.5 460,-904.5 460,-904.5 460,-892.5 460,-892.5 460,-886.5 466,-880.5 472,-880.5"/>
<text text-anchor="middle" x="498.5" y="-894.1" font-family="Clear Sans Thin" font-size="18.00">Module</text>
</g>
<!-- N1&#45;&gt;N2 -->
<g id="edge3" class="edge"><title>N1&#45;&gt;N2</title>
<path fill="none" stroke="#00868b" d="M431.332,-1199.34C440.509,-1182.09 450.015,-1162.12 456.5,-1143 482.207,-1067.22 492.751,-972.582 496.58,-926.81"/>
<polygon fill="#00868b" stroke="#00868b" points="500.073,-927.024 497.375,-916.779 493.095,-926.471 500.073,-927.024"/>
<text text-anchor="middle" x="511" y="-1073.6" font-family="Clear Sans Thin" font-size="18.00" fill="#00868b">astNode</text>
</g>
<!-- N6&#45;&gt;N2 -->
<g id="edge9" class="edge"><title>N6&#45;&gt;N2</title>
<path fill="none" stroke="#00868b" d="M374.997,-973.175C386.503,-959.876 400.585,-945.586 415.5,-935 426.089,-927.484 438.517,-921.115 450.486,-915.937"/>
<polygon fill="#00868b" stroke="#00868b" points="452.029,-919.087 459.941,-912.041 449.362,-912.615 452.029,-919.087"/>
<text text-anchor="middle" x="450" y="-940.6" font-family="Clear Sans Thin" font-size="18.00" fill="#00868b">astNode</text>
</g>
<!-- N10 -->
<g id="node7" class="node"><title>N10</title>
<path fill="none" stroke="#00868b" d="M228.5,-825.5C228.5,-825.5 258.5,-825.5 258.5,-825.5 264.5,-825.5 270.5,-831.5 270.5,-837.5 270.5,-837.5 270.5,-849.5 270.5,-849.5 270.5,-855.5 264.5,-861.5 258.5,-861.5 258.5,-861.5 228.5,-861.5 228.5,-861.5 222.5,-861.5 216.5,-855.5 216.5,-849.5 216.5,-849.5 216.5,-837.5 216.5,-837.5 216.5,-831.5 222.5,-825.5 228.5,-825.5"/>
<text text-anchor="middle" x="243.5" y="-839.1" font-family="Clear Sans Thin" font-size="18.00" fill="#00868b">Map</text>
</g>
<!-- N6&#45;&gt;N10 -->
<g id="edge8" class="edge"><title>N6&#45;&gt;N10</title>
<path fill="none" stroke="#00868b" d="M323.385,-973.246C303.988,-941.985 276.778,-898.133 259.65,-870.529"/>
<polygon fill="#00868b" stroke="#00868b" points="262.5,-868.484 254.254,-861.832 256.552,-872.174 262.5,-868.484"/>
<text text-anchor="middle" x="348" y="-940.6" font-family="Clear Sans Thin" font-size="18.00" fill="#00868b">variables</text>
</g>
<!-- N3&#45;&gt;N6 -->
<g id="edge6" class="edge"><title>N3&#45;&gt;N6</title>
<path fill="none" stroke="#00868b" d="M333.844,-1106.16C335.522,-1093.73 337.869,-1076.37 340.086,-1059.96"/>
<polygon fill="#00868b" stroke="#00868b" points="343.572,-1060.3 341.443,-1049.92 336.635,-1059.37 343.572,-1060.3"/>
<text text-anchor="middle" x="345.5" y="-1073.6" font-family="Clear Sans Thin" font-size="18.00" fill="#00868b">0</text>
</g>
<!-- N9 -->
<g id="node5" class="node"><title>N9</title>
<path fill="none" stroke="black" d="M470.5,-665.5C470.5,-665.5 708.5,-665.5 708.5,-665.5 714.5,-665.5 720.5,-671.5 720.5,-677.5 720.5,-677.5 720.5,-701.5 720.5,-701.5 720.5,-707.5 714.5,-713.5 708.5,-713.5 708.5,-713.5 470.5,-713.5 470.5,-713.5 464.5,-713.5 458.5,-707.5 458.5,-701.5 458.5,-701.5 458.5,-677.5 458.5,-677.5 458.5,-671.5 464.5,-665.5 470.5,-665.5"/>
<text text-anchor="middle" x="589.5" y="-695.1" font-family="Clear Sans Thin" font-size="18.00">VariableDeclarationStatement</text>
<text text-anchor="middle" x="589.5" y="-675.1" font-family="Clear Sans Thin" font-size="18.00"> Statement</text>
</g>
<!-- N2&#45;&gt;N9 -->
<g id="edge4" class="edge"><title>N2&#45;&gt;N9</title>
<path fill="none" stroke="#999999" d="M496,-880.458C493.069,-855.072 490.55,-806.413 507.5,-770 516.479,-750.712 532.336,-733.627 547.728,-720.286"/>
<polygon fill="#999999" stroke="#999999" points="550.246,-722.745 555.696,-713.659 545.769,-717.363 550.246,-722.745"/>
<text text-anchor="middle" x="530.5" y="-784.1" font-family="Clear Sans Thin" font-size="18.00" fill="#999999">items</text>
</g>
<!-- N5 -->
<g id="node6" class="node"><title>N5</title>
<path fill="none" stroke="black" d="M574.5,-770.5C574.5,-770.5 604.5,-770.5 604.5,-770.5 610.5,-770.5 616.5,-776.5 616.5,-782.5 616.5,-782.5 616.5,-794.5 616.5,-794.5 616.5,-800.5 610.5,-806.5 604.5,-806.5 604.5,-806.5 574.5,-806.5 574.5,-806.5 568.5,-806.5 562.5,-800.5 562.5,-794.5 562.5,-794.5 562.5,-782.5 562.5,-782.5 562.5,-776.5 568.5,-770.5 574.5,-770.5"/>
<text text-anchor="middle" x="589.5" y="-784.1" font-family="Clear Sans Thin" font-size="18.00">List</text>
</g>
<!-- N2&#45;&gt;N5 -->
<g id="edge5" class="edge"><title>N2&#45;&gt;N5</title>
<path fill="none" stroke="black" d="M513.121,-880.148C528.046,-862.434 551.365,-834.76 568.312,-814.646"/>
<polygon fill="black" stroke="black" points="571.149,-816.712 574.916,-806.809 565.795,-812.201 571.149,-816.712"/>
<text text-anchor="middle" x="580.5" y="-839.1" font-family="Clear Sans Thin" font-size="18.00">items</text>
</g>
<!-- N12 -->
<g id="node8" class="node"><title>N12</title>
<path fill="none" stroke="black" d="M364.5,-492.5C364.5,-492.5 824.5,-492.5 824.5,-492.5 830.5,-492.5 836.5,-498.5 836.5,-504.5 836.5,-504.5 836.5,-596.5 836.5,-596.5 836.5,-602.5 830.5,-608.5 824.5,-608.5 824.5,-608.5 364.5,-608.5 364.5,-608.5 358.5,-608.5 352.5,-602.5 352.5,-596.5 352.5,-596.5 352.5,-504.5 352.5,-504.5 352.5,-498.5 358.5,-492.5 364.5,-492.5"/>
<text text-anchor="middle" x="594.5" y="-590.1" font-family="Clear Sans Thin" font-size="18.00">VariableDeclaration</text>
<text text-anchor="middle" x="594.5" y="-570.1" font-family="Clear Sans Thin" font-size="18.00"> FunctionDeclarationClassDeclarationVariableDeclaration</text>
<text text-anchor="middle" x="594.5" y="-550.1" font-family="Clear Sans Thin" font-size="18.00"> VariableDeclarationBinding</text>
<text text-anchor="middle" x="594.5" y="-530.1" font-family="Clear Sans Thin" font-size="18.00"> VariableDeclarationExpression</text>
<polyline fill="none" stroke="black" points="352.5,-520.5 836.5,-520.5 "/>
<text text-anchor="start" x="360.5" y="-502.1" font-family="Clear Sans Thin" font-size="18.00">&#39;kind&#39; = &#39;var&#39; : String</text>
</g>
<!-- N9&#45;&gt;N12 -->
<g id="edge10" class="edge"><title>N9&#45;&gt;N12</title>
<path fill="none" stroke="black" d="M590.348,-665.26C590.819,-652.363 591.431,-635.592 592.04,-618.907"/>
<polygon fill="black" stroke="black" points="595.55,-618.686 592.417,-608.565 588.555,-618.431 595.55,-618.686"/>
<text text-anchor="middle" x="639.5" y="-632.6" font-family="Clear Sans Thin" font-size="18.00">declaration</text>
</g>
<!-- N5&#45;&gt;N9 -->
<g id="edge7" class="edge"><title>N5&#45;&gt;N9</title>
<path fill="none" stroke="black" d="M589.5,-770.158C589.5,-757.318 589.5,-739.426 589.5,-723.85"/>
<polygon fill="black" stroke="black" points="593,-723.528 589.5,-713.528 586,-723.528 593,-723.528"/>
<text text-anchor="middle" x="595.5" y="-737.6" font-family="Clear Sans Thin" font-size="18.00">0</text>
</g>
<!-- N13 -->
<g id="node9" class="node"><title>N13</title>
<path fill="none" stroke="#00868b" d="M152,-522.5C152,-522.5 323,-522.5 323,-522.5 329,-522.5 335,-528.5 335,-534.5 335,-534.5 335,-566.5 335,-566.5 335,-572.5 329,-578.5 323,-578.5 323,-578.5 152,-578.5 152,-578.5 146,-578.5 140,-572.5 140,-566.5 140,-566.5 140,-534.5 140,-534.5 140,-528.5 146,-522.5 152,-522.5"/>
<text text-anchor="middle" x="237.5" y="-560.1" font-family="Clear Sans Thin" font-size="18.00" fill="#00868b">Variable</text>
<polyline fill="none" stroke="#00868b" points="140,-550.5 335,-550.5 "/>
<text text-anchor="start" x="148" y="-532.1" font-family="Clear Sans Thin" font-size="18.00" fill="#00868b">&#39;name&#39; = &#39;foo&#39; : String</text>
</g>
<!-- N10&#45;&gt;N13 -->
<g id="edge11" class="edge"><title>N10&#45;&gt;N13</title>
<path fill="none" stroke="#00868b" d="M243.143,-825.168C242.192,-779.038 239.582,-652.457 238.272,-588.918"/>
<polygon fill="#00868b" stroke="#00868b" points="241.771,-588.843 238.065,-578.917 234.772,-588.988 241.771,-588.843"/>
<text text-anchor="middle" x="256" y="-737.6" font-family="Clear Sans Thin" font-size="18.00" fill="#00868b">foo</text>
</g>
<!-- N20 -->
<g id="node10" class="node"><title>N20</title>
<path fill="none" stroke="black" d="M513,-296.5C513,-296.5 658,-296.5 658,-296.5 664,-296.5 670,-302.5 670,-308.5 670,-308.5 670,-320.5 670,-320.5 670,-326.5 664,-332.5 658,-332.5 658,-332.5 513,-332.5 513,-332.5 507,-332.5 501,-326.5 501,-320.5 501,-320.5 501,-308.5 501,-308.5 501,-302.5 507,-296.5 513,-296.5"/>
<text text-anchor="middle" x="585.5" y="-310.1" font-family="Clear Sans Thin" font-size="18.00">VariableDeclarator</text>
</g>
<!-- N12&#45;&gt;N20 -->
<g id="edge12" class="edge"><title>N12&#45;&gt;N20</title>
<path fill="none" stroke="#999999" d="M561.896,-492.323C553.551,-474.808 545.741,-455.108 541.5,-436 537.936,-419.946 537.551,-414.963 541.5,-399 546.598,-378.39 557.807,-357.252 567.635,-341.401"/>
<polygon fill="#999999" stroke="#999999" points="570.749,-343.029 573.206,-332.723 564.858,-339.248 570.749,-343.029"/>
<text text-anchor="middle" x="589" y="-413.1" font-family="Clear Sans Thin" font-size="18.00" fill="#999999">declarators</text>
</g>
<!-- N16 -->
<g id="node11" class="node"><title>N16</title>
<path fill="none" stroke="black" d="M657.5,-399.5C657.5,-399.5 687.5,-399.5 687.5,-399.5 693.5,-399.5 699.5,-405.5 699.5,-411.5 699.5,-411.5 699.5,-423.5 699.5,-423.5 699.5,-429.5 693.5,-435.5 687.5,-435.5 687.5,-435.5 657.5,-435.5 657.5,-435.5 651.5,-435.5 645.5,-429.5 645.5,-423.5 645.5,-423.5 645.5,-411.5 645.5,-411.5 645.5,-405.5 651.5,-399.5 657.5,-399.5"/>
<text text-anchor="middle" x="672.5" y="-413.1" font-family="Clear Sans Thin" font-size="18.00">List</text>
</g>
<!-- N12&#45;&gt;N16 -->
<g id="edge13" class="edge"><title>N12&#45;&gt;N16</title>
<path fill="none" stroke="black" d="M628.485,-492.423C638.425,-475.728 648.807,-458.292 656.99,-444.549"/>
<polygon fill="black" stroke="black" points="660.163,-446.061 662.272,-435.679 654.148,-442.48 660.163,-446.061"/>
<text text-anchor="middle" x="697" y="-459.6" font-family="Clear Sans Thin" font-size="18.00">declarators</text>
</g>
<!-- N22 -->
<g id="node12" class="node"><title>N22</title>
<path fill="none" stroke="#00868b" d="M297,-286.5C297,-286.5 458,-286.5 458,-286.5 464,-286.5 470,-292.5 470,-298.5 470,-298.5 470,-330.5 470,-330.5 470,-336.5 464,-342.5 458,-342.5 458,-342.5 297,-342.5 297,-342.5 291,-342.5 285,-336.5 285,-330.5 285,-330.5 285,-298.5 285,-298.5 285,-292.5 291,-286.5 297,-286.5"/>
<text text-anchor="middle" x="377.5" y="-324.1" font-family="Clear Sans Thin" font-size="18.00" fill="#00868b">Declaration</text>
<polyline fill="none" stroke="#00868b" points="285,-314.5 470,-314.5 "/>
<text text-anchor="start" x="293" y="-296.1" font-family="Clear Sans Thin" font-size="18.00" fill="#00868b">&#39;kind&#39; = &#39;Var&#39; : String</text>
</g>
<!-- N13&#45;&gt;N22 -->
<g id="edge14" class="edge"><title>N13&#45;&gt;N22</title>
<path fill="none" stroke="#999999" d="M262.096,-522.446C273.536,-508.728 286.557,-491.333 295.5,-474 311.486,-443.015 303.136,-430.298 318.5,-399 326.739,-382.217 338.186,-365.11 348.806,-350.785"/>
<polygon fill="#999999" stroke="#999999" points="351.685,-352.781 354.933,-342.697 346.105,-348.555 351.685,-352.781"/>
<text text-anchor="middle" x="370" y="-413.1" font-family="Clear Sans Thin" font-size="18.00" fill="#999999">declarations</text>
</g>
<!-- N21 -->
<g id="node13" class="node"><title>N21</title>
<path fill="none" stroke="#00868b" d="M12,-286.5C12,-286.5 255,-286.5 255,-286.5 261,-286.5 267,-292.5 267,-298.5 267,-298.5 267,-330.5 267,-330.5 267,-336.5 261,-342.5 255,-342.5 255,-342.5 12,-342.5 12,-342.5 6,-342.5 0,-336.5 0,-330.5 0,-330.5 0,-298.5 0,-298.5 0,-292.5 6,-286.5 12,-286.5"/>
<text text-anchor="middle" x="133.5" y="-324.1" font-family="Clear Sans Thin" font-size="18.00" fill="#00868b">Reference</text>
<polyline fill="none" stroke="#00868b" points="0,-314.5 267,-314.5 "/>
<text text-anchor="start" x="8" y="-296.1" font-family="Clear Sans Thin" font-size="18.00" fill="#00868b">&#39;accessibility&#39; = &#39;Write&#39; : String</text>
</g>
<!-- N13&#45;&gt;N21 -->
<g id="edge15" class="edge"><title>N13&#45;&gt;N21</title>
<path fill="none" stroke="#999999" d="M193.488,-522.499C165.399,-502.506 131.383,-472.469 115.5,-436 103.994,-409.581 109.831,-377.156 117.812,-352.599"/>
<polygon fill="#999999" stroke="#999999" points="121.195,-353.528 121.192,-342.933 114.587,-351.216 121.195,-353.528"/>
<text text-anchor="middle" x="159" y="-413.1" font-family="Clear Sans Thin" font-size="18.00" fill="#999999">references</text>
</g>
<!-- N18 -->
<g id="node14" class="node"><title>N18</title>
<path fill="none" stroke="#00868b" d="M442.5,-399.5C442.5,-399.5 472.5,-399.5 472.5,-399.5 478.5,-399.5 484.5,-405.5 484.5,-411.5 484.5,-411.5 484.5,-423.5 484.5,-423.5 484.5,-429.5 478.5,-435.5 472.5,-435.5 472.5,-435.5 442.5,-435.5 442.5,-435.5 436.5,-435.5 430.5,-429.5 430.5,-423.5 430.5,-423.5 430.5,-411.5 430.5,-411.5 430.5,-405.5 436.5,-399.5 442.5,-399.5"/>
<text text-anchor="middle" x="457.5" y="-413.1" font-family="Clear Sans Thin" font-size="18.00" fill="#00868b">List</text>
</g>
<!-- N13&#45;&gt;N18 -->
<g id="edge16" class="edge"><title>N13&#45;&gt;N18</title>
<path fill="none" stroke="#00868b" d="M283.084,-522.357C324.215,-497.865 383.897,-462.327 421.692,-439.822"/>
<polygon fill="#00868b" stroke="#00868b" points="423.538,-442.796 430.339,-434.673 419.956,-436.782 423.538,-442.796"/>
<text text-anchor="middle" x="444" y="-459.6" font-family="Clear Sans Thin" font-size="18.00" fill="#00868b">declarations</text>
</g>
<!-- N17 -->
<g id="node15" class="node"><title>N17</title>
<path fill="none" stroke="#00868b" d="M223.5,-399.5C223.5,-399.5 253.5,-399.5 253.5,-399.5 259.5,-399.5 265.5,-405.5 265.5,-411.5 265.5,-411.5 265.5,-423.5 265.5,-423.5 265.5,-429.5 259.5,-435.5 253.5,-435.5 253.5,-435.5 223.5,-435.5 223.5,-435.5 217.5,-435.5 211.5,-429.5 211.5,-423.5 211.5,-423.5 211.5,-411.5 211.5,-411.5 211.5,-405.5 217.5,-399.5 223.5,-399.5"/>
<text text-anchor="middle" x="238.5" y="-413.1" font-family="Clear Sans Thin" font-size="18.00" fill="#00868b">List</text>
</g>
<!-- N13&#45;&gt;N17 -->
<g id="edge17" class="edge"><title>N13&#45;&gt;N17</title>
<path fill="none" stroke="#00868b" d="M219.898,-522.477C209.618,-503.207 200.163,-476.781 208.5,-454 209.796,-450.457 211.62,-447.025 213.734,-443.78"/>
<polygon fill="#00868b" stroke="#00868b" points="216.616,-445.773 219.85,-435.684 211.03,-441.553 216.616,-445.773"/>
<text text-anchor="middle" x="252" y="-459.6" font-family="Clear Sans Thin" font-size="18.00" fill="#00868b">references</text>
</g>
<!-- N28 -->
<g id="node16" class="node"><title>N28</title>
<path fill="none" stroke="black" d="M525,-143.5C525,-143.5 722,-143.5 722,-143.5 728,-143.5 734,-149.5 734,-155.5 734,-155.5 734,-207.5 734,-207.5 734,-213.5 728,-219.5 722,-219.5 722,-219.5 525,-219.5 525,-219.5 519,-219.5 513,-213.5 513,-207.5 513,-207.5 513,-155.5 513,-155.5 513,-149.5 519,-143.5 525,-143.5"/>
<text text-anchor="middle" x="623.5" y="-201.1" font-family="Clear Sans Thin" font-size="18.00">BinaryExpression</text>
<text text-anchor="middle" x="623.5" y="-181.1" font-family="Clear Sans Thin" font-size="18.00"> Expression</text>
<polyline fill="none" stroke="black" points="513,-171.5 734,-171.5 "/>
<text text-anchor="start" x="521" y="-153.1" font-family="Clear Sans Thin" font-size="18.00">&#39;operator&#39; = &#39;Div&#39; : String</text>
</g>
<!-- N20&#45;&gt;N28 -->
<g id="edge21" class="edge"><title>N20&#45;&gt;N28</title>
<path fill="none" stroke="black" d="M590.468,-296.374C595.379,-279.443 603.117,-252.769 609.869,-229.492"/>
<polygon fill="black" stroke="black" points="613.266,-230.342 612.691,-219.763 606.544,-228.392 613.266,-230.342"/>
<text text-anchor="middle" x="618" y="-253.6" font-family="Clear Sans Thin" font-size="18.00">init</text>
</g>
<!-- N24 -->
<g id="node17" class="node"><title>N24</title>
<path fill="none" stroke="black" d="M191.5,-133.5C191.5,-133.5 483.5,-133.5 483.5,-133.5 489.5,-133.5 495.5,-139.5 495.5,-145.5 495.5,-145.5 495.5,-217.5 495.5,-217.5 495.5,-223.5 489.5,-229.5 483.5,-229.5 483.5,-229.5 191.5,-229.5 191.5,-229.5 185.5,-229.5 179.5,-223.5 179.5,-217.5 179.5,-217.5 179.5,-145.5 179.5,-145.5 179.5,-139.5 185.5,-133.5 191.5,-133.5"/>
<text text-anchor="middle" x="337.5" y="-211.1" font-family="Clear Sans Thin" font-size="18.00">BindingIdentifier</text>
<text text-anchor="middle" x="337.5" y="-191.1" font-family="Clear Sans Thin" font-size="18.00"> BindingIdentifierMemberExpression</text>
<text text-anchor="middle" x="337.5" y="-171.1" font-family="Clear Sans Thin" font-size="18.00"> Binding</text>
<polyline fill="none" stroke="black" points="179.5,-161.5 495.5,-161.5 "/>
<text text-anchor="start" x="187.5" y="-143.1" font-family="Clear Sans Thin" font-size="18.00">&#39;name&#39; = &#39;foo&#39; : String</text>
</g>
<!-- N20&#45;&gt;N24 -->
<g id="edge22" class="edge"><title>N20&#45;&gt;N24</title>
<path fill="none" stroke="black" d="M553.078,-296.374C523.17,-280.575 477.201,-256.294 435.383,-234.204"/>
<polygon fill="black" stroke="black" points="437.007,-231.104 426.53,-229.528 433.738,-237.294 437.007,-231.104"/>
<text text-anchor="middle" x="529.5" y="-253.6" font-family="Clear Sans Thin" font-size="18.00">binding</text>
</g>
<!-- N16&#45;&gt;N20 -->
<g id="edge18" class="edge"><title>N16&#45;&gt;N20</title>
<path fill="none" stroke="black" d="M657.742,-399.367C643.868,-383.261 622.935,-358.959 607.168,-340.654"/>
<polygon fill="black" stroke="black" points="609.509,-338.01 600.331,-332.717 604.205,-342.578 609.509,-338.01"/>
<text text-anchor="middle" x="648.5" y="-366.6" font-family="Clear Sans Thin" font-size="18.00">0</text>
</g>
<!-- N22&#45;&gt;N24 -->
<g id="edge24" class="edge"><title>N22&#45;&gt;N24</title>
<path fill="none" stroke="#00868b" d="M369.212,-286.357C365.081,-272.827 359.92,-255.927 354.97,-239.714"/>
<polygon fill="#00868b" stroke="#00868b" points="358.194,-238.287 351.926,-229.745 351.499,-240.331 358.194,-238.287"/>
<text text-anchor="middle" x="384.5" y="-253.6" font-family="Clear Sans Thin" font-size="18.00" fill="#00868b">node</text>
</g>
<!-- N21&#45;&gt;N24 -->
<g id="edge23" class="edge"><title>N21&#45;&gt;N24</title>
<path fill="none" stroke="#00868b" d="M175.769,-286.357C198.726,-271.615 227.916,-252.87 255.161,-235.375"/>
<polygon fill="#00868b" stroke="#00868b" points="257.405,-238.093 263.928,-229.745 253.622,-232.203 257.405,-238.093"/>
<text text-anchor="middle" x="256.5" y="-253.6" font-family="Clear Sans Thin" font-size="18.00" fill="#00868b">node</text>
</g>
<!-- N18&#45;&gt;N22 -->
<g id="edge20" class="edge"><title>N18&#45;&gt;N22</title>
<path fill="none" stroke="#00868b" d="M443.929,-399.367C433.356,-386.018 418.322,-367.038 405.231,-350.51"/>
<polygon fill="#00868b" stroke="#00868b" points="407.941,-348.294 398.988,-342.628 402.453,-352.64 407.941,-348.294"/>
<text text-anchor="middle" x="435.5" y="-366.6" font-family="Clear Sans Thin" font-size="18.00" fill="#00868b">0</text>
</g>
<!-- N17&#45;&gt;N21 -->
<g id="edge19" class="edge"><title>N17&#45;&gt;N21</title>
<path fill="none" stroke="#00868b" d="M220.688,-399.367C206.558,-385.775 186.36,-366.346 168.962,-349.611"/>
<polygon fill="#00868b" stroke="#00868b" points="171.336,-347.038 161.703,-342.628 166.483,-352.083 171.336,-347.038"/>
<text text-anchor="middle" x="208.5" y="-366.6" font-family="Clear Sans Thin" font-size="18.00" fill="#00868b">0</text>
</g>
<!-- N32 -->
<g id="node18" class="node"><title>N32</title>
<path fill="none" stroke="black" d="M396,-0.5C396,-0.5 603,-0.5 603,-0.5 609,-0.5 615,-6.5 615,-12.5 615,-12.5 615,-64.5 615,-64.5 615,-70.5 609,-76.5 603,-76.5 603,-76.5 396,-76.5 396,-76.5 390,-76.5 384,-70.5 384,-64.5 384,-64.5 384,-12.5 384,-12.5 384,-6.5 390,-0.5 396,-0.5"/>
<text text-anchor="middle" x="499.5" y="-58.1" font-family="Clear Sans Thin" font-size="18.00">Expression</text>
<text text-anchor="middle" x="499.5" y="-38.1" font-family="Clear Sans Thin" font-size="18.00"> LiteralNumericExpression</text>
<polyline fill="none" stroke="black" points="384,-28.5 615,-28.5 "/>
<text text-anchor="start" x="392" y="-10.1" font-family="Clear Sans Thin" font-size="18.00">&#39;value&#39; = 0.0 : double</text>
</g>
<!-- N28&#45;&gt;N32 -->
<g id="edge25" class="edge"><title>N28&#45;&gt;N32</title>
<path fill="none" stroke="black" d="M590.92,-143.454C575.028,-125.382 555.777,-103.493 539.048,-84.4701"/>
<polygon fill="black" stroke="black" points="541.525,-81.9861 532.292,-76.7882 536.268,-86.6089 541.525,-81.9861"/>
<text text-anchor="middle" x="585.5" y="-100.6" font-family="Clear Sans Thin" font-size="18.00">right</text>
</g>
<!-- N31 -->
<g id="node19" class="node"><title>N31</title>
<path fill="none" stroke="black" d="M645,-0.5C645,-0.5 852,-0.5 852,-0.5 858,-0.5 864,-6.5 864,-12.5 864,-12.5 864,-64.5 864,-64.5 864,-70.5 858,-76.5 852,-76.5 852,-76.5 645,-76.5 645,-76.5 639,-76.5 633,-70.5 633,-64.5 633,-64.5 633,-12.5 633,-12.5 633,-6.5 639,-0.5 645,-0.5"/>
<text text-anchor="middle" x="748.5" y="-58.1" font-family="Clear Sans Thin" font-size="18.00">Expression</text>
<text text-anchor="middle" x="748.5" y="-38.1" font-family="Clear Sans Thin" font-size="18.00"> LiteralNumericExpression</text>
<polyline fill="none" stroke="black" points="633,-28.5 864,-28.5 "/>
<text text-anchor="start" x="641" y="-10.1" font-family="Clear Sans Thin" font-size="18.00">&#39;value&#39; = 1.0 : double</text>
</g>
<!-- N28&#45;&gt;N31 -->
<g id="edge26" class="edge"><title>N28&#45;&gt;N31</title>
<path fill="none" stroke="black" d="M656.342,-143.454C672.363,-125.382 691.769,-103.493 708.633,-84.4701"/>
<polygon fill="black" stroke="black" points="711.428,-86.5929 715.443,-76.7882 706.19,-81.9493 711.428,-86.5929"/>
<text text-anchor="middle" x="710" y="-100.6" font-family="Clear Sans Thin" font-size="18.00">left</text>
</g>
</g>
</svg>
